# xmcd CD database file
#
# Track frame offsets:
#	150
#	14314
#	29845
#	52769
#	68498
#	80282
#	100383
#	118156
#	130540
#	144527
#	158688
#	175138
#
# Disc length: 2483 seconds
#
# Revision: 0
# Processed by: cddbd v1.5.2PL0 Copyright (c) Steve Scherf et al.
# Submitted via: CDex 1.51
#
DISCID=9409b10c
DTITLE=Wilko Johnson - Blow Your Mind
DYEAR=2018
DGENRE=Blues
TTITLE0=Beauty
TTITLE1=Blow Your Mind
TTITLE2=Marijuana
TTITLE3=Tell Me One More Thing
TTITLE4=That's The Way I Love You
TTITLE5=Low Down
TTITLE6=Take It Easy
TTITLE7=I Love The Way You Do
TTITLE8=It Don't Have To Give You The Blues
TTITLE9=Lament
TTITLE10=Say Goodbye
TTITLE11=Slamming
EXTD=YEAR: 2018
EXTT0=
EXTT1=
EXTT2=
EXTT3=
EXTT4=
EXTT5=
EXTT6=
EXTT7=
EXTT8=
EXTT9=
EXTT10=
EXTT11=
PLAYORDER=
